<svg width="25" height="24" viewBox="0 0 25 24" fill="none" xmlns="http://www.w3.org/2000/svg">
<path d="M15.8885 10.6074C16.414 10.6074 16.84 11.2311 16.84 12.0003C16.84 12.7695 16.414 13.3931 15.8885 13.3931H8.91139C8.38592 13.3931 7.95996 12.7695 7.95996 12.0003C7.95996 11.2311 8.38592 10.6074 8.91139 10.6074H15.8885Z" fill="#909090"/>
<path fill-rule="evenodd" clip-rule="evenodd" d="M2.44094 15.9597C-0.59162 8.74794 4.88445 0.857422 12.922 0.857422H13.3556C19.3667 0.857422 24.2396 5.57861 24.2396 11.4024C24.2396 17.8867 18.8141 23.1431 12.1216 23.1431H1.57143C1.14208 23.1431 0.759472 22.8805 0.616982 22.4882C0.474478 22.0958 0.603113 21.6589 0.937874 21.3984L3.59757 19.3289C3.71388 19.2385 3.75501 19.0848 3.69873 18.9509L2.44094 15.9597ZM12.922 2.81804C6.3216 2.81804 1.82468 9.29776 4.315 15.22L5.57279 18.2113C5.96672 19.148 5.67876 20.2243 4.8647 20.8577L4.44723 21.1825H12.1216C17.6965 21.1825 22.216 16.8038 22.216 11.4024C22.216 6.66143 18.2491 2.81804 13.3556 2.81804H12.922Z" fill="#909090"/>
</svg>
