<svg
  width="35"
  height="37"
  viewBox="0 0 35 37"
  fill="none"
  xmlns="http://www.w3.org/2000/svg"
>
<path
    d="M24.6384 30.9804C24.3852 31.1266 24.0594 31.147 23.7337 31.1676L18.5388 30.6482L16.3911 35.4068C16.1565 35.8774 15.6501 36.1698 15.1977 36.2633C14.5462 36.3044 14.0754 36.0737 13.7851 35.5709L2.53937 16.0927C1.0883 13.5793 1.89894 10.598 4.17766 9.28236L15.9511 2.48497C18.3564 1.09626 21.3436 1.8849 22.7947 4.39822L34.0405 23.8765C34.3307 24.3792 34.2952 24.9023 34.0605 25.3729C33.8258 25.8435 33.2469 26.0103 32.722 25.9782L27.5271 25.4588L25.3794 30.2174C25.0722 30.5623 24.8916 30.8342 24.6384 30.9804Z"
    fill="white"
  />
<path
    d="M18.3652 21.5801C18.1008 21.7328 17.6284 21.8303 17.4203 21.7752L13.5622 21.1986C12.7298 20.9781 12.0664 20.1343 12.2916 19.3033C12.5169 18.4722 13.2342 17.8828 14.0665 18.1033L16.4117 18.5018L17.4792 13.3289C17.7044 12.4978 18.4976 12.0399 19.2541 12.1289C20.0866 12.3493 20.5418 13.138 20.4487 13.8928L19.1953 20.5751C19.0825 20.9907 18.7618 21.3511 18.3652 21.5801Z"
    fill="#D1643A"
  />
</svg>
