<svg
  width="41"
  height="41"
  viewBox="0 0 41 41"
  fill="none"
  xmlns="http://www.w3.org/2000/svg"
>
<circle cx="20.5" cy="20.5" r="19.5" stroke="#D1643A" stroke-width="2" />
<path
    d="M28.3382 26.409C27.4941 26.6502 26.5294 26.7708 25.5647 26.7708H15.4353C14.4706 26.7708 13.5059 26.6502 12.6618 26.409C12.1794 26.2884 11.8176 26.1678 11.4559 25.9267C10.9735 25.6855 10.6118 25.5649 10.25 25.2031V28.3384C10.25 30.6296 12.1794 32.559 14.4706 32.559H26.5294C28.8206 32.559 30.75 30.6296 30.75 28.3384V25.2031C30.3882 25.4443 29.9059 25.6855 29.5441 25.9267C29.1824 26.0472 28.7 26.2884 28.3382 26.409Z"
    fill="#D1643A"
  />
<path
    d="M28.5796 8.44141H12.4208C10.2502 8.44141 8.44141 10.2502 8.44141 12.4208V17.3649C8.44141 19.4149 9.28552 21.2237 10.612 22.4296C10.9738 22.7914 11.3355 23.0326 11.8179 23.3943C12.9032 23.9973 14.1091 24.359 15.4355 24.359H25.4443C26.7708 24.359 27.9767 23.9973 29.062 23.3943C29.5443 23.1532 29.9061 22.7914 30.2679 22.4296C31.5943 21.1032 32.4385 19.2943 32.4385 17.3649V12.4208C32.5591 10.2502 30.7502 8.44141 28.5796 8.44141Z"
    fill="#D1643A"
  />
<path
    d="M23.5146 20.6198H17.4852C16.7616 20.6198 16.2793 20.1374 16.2793 19.4139C16.2793 18.6904 16.8822 18.208 17.4852 18.208H23.5146C24.2381 18.208 24.7205 18.6904 24.7205 19.4139C24.7205 20.1374 24.2381 20.6198 23.5146 20.6198Z"
    fill="white"
  />
</svg>
