<svg width="24" height="25" viewBox="0 0 24 25" fill="none" xmlns="http://www.w3.org/2000/svg">
<path d="M16.3286 24H7.67144C7.49336 24 7.32258 23.9378 7.19666 23.8271C7.07074 23.7165 7 23.5664 7 23.4098V0.590164C7 0.433643 7.07074 0.283532 7.19666 0.172855C7.32258 0.0621778 7.49336 0 7.67144 0H16.3286C16.5066 0 16.6774 0.0621778 16.8033 0.172855C16.9293 0.283532 17 0.433643 17 0.590164V23.4098C17 23.5664 16.9293 23.7165 16.8033 23.8271C16.6774 23.9378 16.5066 24 16.3286 24ZM8.34288 22.8197H15.6571V1.18033H8.34288V22.8197Z" fill="#868585"/>
<path d="M12.4624 25H10.5376C10.395 25 10.2583 24.921 10.1575 24.7803C10.0566 24.6397 10 24.4489 10 24.25V19.75C10 19.5511 10.0566 19.3603 10.1575 19.2197C10.2583 19.079 10.395 19 10.5376 19H12.4624C12.605 19 12.7417 19.079 12.8425 19.2197C12.9434 19.3603 13 19.5511 13 19.75V24.25C13 24.4489 12.9434 24.6397 12.8425 24.7803C12.7417 24.921 12.605 25 12.4624 25ZM11.0753 23.5H11.9247V20.5H11.0753V23.5Z" fill="#868585"/>
<path d="M14.1167 23H12C11.8435 23 11.6934 22.9379 11.5827 22.8273C11.472 22.7167 11.4098 22.5668 11.4098 22.4104V18.8728C11.4098 18.7164 11.472 18.5665 11.5827 18.4559C11.6934 18.3453 11.8435 18.2832 12 18.2832H14.1167C14.2732 18.2832 14.4234 18.3453 14.534 18.4559C14.6447 18.5665 14.7069 18.7164 14.7069 18.8728V22.4104C14.7069 22.5668 14.6447 22.7167 14.534 22.8273C14.4234 22.9379 14.2732 23 14.1167 23ZM12.5902 21.8208H13.5266V19.4624H12.5902V21.8208ZM23.4098 23H15.8046C15.6481 23 15.498 22.9379 15.3873 22.8273C15.2766 22.7167 15.2144 22.5668 15.2144 22.4104V13.4918C15.2144 13.3354 15.2766 13.1854 15.3873 13.0749C15.498 12.9643 15.6481 12.9022 15.8046 12.9022H23.4098C23.5664 12.9022 23.7165 12.9643 23.8271 13.0749C23.9378 13.1854 24 13.3354 24 13.4918V22.4104C24 22.5668 23.9378 22.7167 23.8271 22.8273C23.7165 22.9379 23.5664 23 23.4098 23ZM16.3948 21.8208H22.8197V14.0814H16.3948V21.8208ZM8.19541 23H0.590164C0.433643 23 0.283532 22.9379 0.172855 22.8273C0.0621778 22.7167 0 22.5668 0 22.4104V6.58955C0.000644007 6.49363 0.0245459 6.3993 0.0696591 6.31464C0.114772 6.22997 0.179753 6.15749 0.259036 6.10339C0.33832 6.0493 0.429545 6.01521 0.5249 6.00404C0.620255 5.99287 0.716899 6.00495 0.806557 6.03926L8.4118 9.0462C8.52229 9.0897 8.61707 9.1655 8.68376 9.26368C8.75044 9.36185 8.78593 9.47785 8.78557 9.59649V22.4104C8.78557 22.5668 8.7234 22.7167 8.61272 22.8273C8.50204 22.9379 8.35193 23 8.19541 23ZM1.18033 21.8208H7.60525V9.98563L1.18033 7.47394V21.8208Z" fill="#868585"/>
<path d="M5.38596 17H1.65789C1.48341 17 1.31607 16.9385 1.19269 16.829C1.06931 16.7195 1 16.571 1 16.4162C1 16.2614 1.06931 16.1129 1.19269 16.0034C1.31607 15.8939 1.48341 15.8324 1.65789 15.8324H5.38596C5.56045 15.8324 5.72779 15.8939 5.85117 16.0034C5.97455 16.1129 6.04386 16.2614 6.04386 16.4162C6.04386 16.571 5.97455 16.7195 5.85117 16.829C5.72779 16.9385 5.56045 17 5.38596 17ZM5.38596 14.2327H1.65789C1.48341 14.2327 1.31607 14.1712 1.19269 14.0618C1.06931 13.9523 1 13.8038 1 13.6489C1 13.4941 1.06931 13.3456 1.19269 13.2361C1.31607 13.1266 1.48341 13.0651 1.65789 13.0651H5.38596C5.56045 13.0651 5.72779 13.1266 5.85117 13.2361C5.97455 13.3456 6.04386 13.4941 6.04386 13.6489C6.04386 13.8038 5.97455 13.9523 5.85117 14.0618C5.72779 14.1712 5.56045 14.2327 5.38596 14.2327ZM13.864 3.16762H10.136C9.96148 3.16762 9.79414 3.10611 9.67076 2.99662C9.54738 2.88714 9.47807 2.73865 9.47807 2.58381C9.47807 2.42897 9.54738 2.28048 9.67076 2.17099C9.79414 2.06151 9.96148 2 10.136 2H13.864C14.0385 2 14.2059 2.06151 14.3292 2.17099C14.4526 2.28048 14.5219 2.42897 14.5219 2.58381C14.5219 2.73865 14.4526 2.88714 14.3292 2.99662C14.2059 3.10611 14.0385 3.16762 13.864 3.16762ZM13.864 8.69824H10.136C9.96148 8.69824 9.79414 8.63673 9.67076 8.52724C9.54738 8.41776 9.47807 8.26926 9.47807 8.11443C9.47807 7.95959 9.54738 7.8111 9.67076 7.70161C9.79414 7.59213 9.96148 7.53062 10.136 7.53062H13.864C14.0385 7.53062 14.2059 7.59213 14.3292 7.70161C14.4526 7.8111 14.5219 7.95959 14.5219 8.11443C14.5219 8.26926 14.4526 8.41776 14.3292 8.52724C14.2059 8.63673 14.0385 8.69824 13.864 8.69824ZM13.864 5.93487H10.136C9.96148 5.93487 9.79414 5.87336 9.67076 5.76388C9.54738 5.65439 9.47807 5.5059 9.47807 5.35106C9.47807 5.19623 9.54738 5.04773 9.67076 4.93825C9.79414 4.82876 9.96148 4.76726 10.136 4.76726H13.864C14.0385 4.76726 14.2059 4.82876 14.3292 4.93825C14.4526 5.04773 14.5219 5.19623 14.5219 5.35106C14.5219 5.5059 14.4526 5.65439 14.3292 5.76388C14.2059 5.87336 14.0385 5.93487 13.864 5.93487ZM13.864 14.2327H10.136C9.96148 14.2327 9.79414 14.1712 9.67076 14.0618C9.54738 13.9523 9.47807 13.8038 9.47807 13.6489C9.47807 13.4941 9.54738 13.3456 9.67076 13.2361C9.79414 13.1266 9.96148 13.0651 10.136 13.0651H13.864C14.0385 13.0651 14.2059 13.1266 14.3292 13.2361C14.4526 13.3456 14.5219 13.4941 14.5219 13.6489C14.5219 13.8038 14.4526 13.9523 14.3292 14.0618C14.2059 14.1712 14.0385 14.2327 13.864 14.2327ZM13.864 17H10.136C9.96148 17 9.79414 16.9385 9.67076 16.829C9.54738 16.7195 9.47807 16.571 9.47807 16.4162C9.47807 16.2614 9.54738 16.1129 9.67076 16.0034C9.79414 15.8939 9.96148 15.8324 10.136 15.8324H13.864C14.0385 15.8324 14.2059 15.8939 14.3292 16.0034C14.4526 16.1129 14.5219 16.2614 14.5219 16.4162C14.5219 16.571 14.4526 16.7195 14.3292 16.829C14.2059 16.9385 14.0385 17 13.864 17ZM22.3421 17H18.614C18.4396 17 18.2722 16.9385 18.1488 16.829C18.0255 16.7195 17.9561 16.571 17.9561 16.4162C17.9561 16.2614 18.0255 16.1129 18.1488 16.0034C18.2722 15.8939 18.4396 15.8324 18.614 15.8324H22.3421C22.5166 15.8324 22.6839 15.8939 22.8073 16.0034C22.9307 16.1129 23 16.2614 23 16.4162C23 16.571 22.9307 16.7195 22.8073 16.829C22.6839 16.9385 22.5166 17 22.3421 17ZM13.864 11.4655H10.136C9.96148 11.4655 9.79414 11.404 9.67076 11.2945C9.54738 11.185 9.47807 11.0365 9.47807 10.8817C9.47807 10.7268 9.54738 10.5784 9.67076 10.4689C9.79414 10.3594 9.96148 10.2979 10.136 10.2979H13.864C14.0385 10.2979 14.2059 10.3594 14.3292 10.4689C14.4526 10.5784 14.5219 10.7268 14.5219 10.8817C14.5219 11.0365 14.4526 11.185 14.3292 11.2945C14.2059 11.404 14.0385 11.4655 13.864 11.4655Z" fill="#868585"/>
</svg>
